# xmcd
#
# Track frame offsets: 
#        150
#        27468
#        57865
#        80783
#        107130
#        139038
#        177323
#        201000
#        228375
#        256075
#        279628
#        307388
#
# Disc length: 4432 seconds
#
# Revision: 2
# Processed by: cddbd v1.5.2PL0 Copyright (c) Steve Scherf et al.
# Submitted via: ExactAudioCopy v0.99pb5
#
DISCID=af114e0c
DTITLE=Tuan Anh - Da Khuc Dam Me
DYEAR=1988
DGENRE=Ethnic (Vietnamese)
TTITLE0=Dan Trong Dem Vang
TTITLE1=Tuong Tu
TTITLE2=Loi Dang Cho Cuoc Tinh
TTITLE3=Tinh Phu
TTITLE4=Vi Toi La Linh Muc
TTITLE5=Da Khuc Dam Me
TTITLE6=Ao Anh
TTITLE7=Niem Khuc Cuoi
TTITLE8=Can Gac Luu Day
TTITLE9=Du Tinh Yeu Da Mat
TTITLE10=Tieng Hat Khoi Suong
TTITLE11=Roi Co Mot Ngay
EXTD=
EXTT0=
EXTT1=
EXTT2=
EXTT3=
EXTT4=
EXTT5=
EXTT6=
EXTT7=
EXTT8=
EXTT9=
EXTT10=
EXTT11=
PLAYORDER=
